<svg width="1440" height="150" viewBox="0 0 1440 150" fill="none" xmlns="http://www.w3.org/2000/svg">
<rect width="1440" height="150" fill="url(#paint0_linear_92_142)"/>
<path d="M1325.77 63.3244C1328.59 63.3244 1330.91 63.3373 1330.93 63.3568C1330.96 63.3762 1330.86 63.7192 1330.73 64.1204C1330.59 64.5217 1330.38 65.1041 1330.27 65.4277C1330.16 65.7448 1329.92 66.405 1329.76 66.8839C1329.59 67.3628 1329.29 68.2107 1329.1 68.7607C1328.76 69.7445 1328.46 70.5988 1328.22 71.2719C1328.15 71.4596 1328.07 71.6278 1328.05 71.6472C1328 71.6811 1320.23 71.7838 1318.21 71.7838C1317.91 71.7838 1317.74 71.7817 1317.73 71.7767C1317.71 71.7573 1317.76 71.5761 1317.83 71.369C1317.9 71.1619 1318.5 69.4339 1319.17 67.5311C1319.84 65.6284 1320.41 63.9975 1320.44 63.9068C1320.47 63.8162 1320.53 63.648 1320.58 63.5315L1320.67 63.3244H1325.77ZM1316.77 63.3361C1317.33 63.3361 1317.72 63.3552 1317.77 63.3891C1317.83 63.4344 1317.76 63.7257 1317.57 64.2823C1317.4 64.7353 1317.14 65.4795 1316.99 65.9455C1316.83 66.405 1316.56 67.1946 1316.38 67.6929C1316.01 68.7284 1315.68 69.7121 1315.55 70.0875C1315.51 70.2299 1315.35 70.67 1315.2 71.0712L1314.94 71.7896L1313.89 71.8285C1313.31 71.8478 1311.07 71.8802 1308.91 71.8996C1306.76 71.9191 1303.21 71.9514 1301.03 71.9773L1297.09 72.0162L1297.11 67.7188L1297.13 63.4215L1306.24 63.3891C1311.24 63.3697 1315.87 63.3503 1316.51 63.3373C1316.6 63.3365 1316.69 63.3361 1316.77 63.3361ZM1290.1 63.4004C1292.59 63.4004 1294.42 63.413 1294.42 63.4344C1294.44 63.7257 1294.43 72.0032 1294.41 72.0226C1294.34 72.0705 1283.62 72.1667 1279.8 72.1667C1278.98 72.1667 1278.47 72.1623 1278.46 72.152C1278.42 72.1197 1278.3 71.8608 1278.21 71.5761C1277.9 70.6506 1276.38 66.2756 1276.25 65.9455C1276.03 65.3566 1275.43 63.5962 1275.43 63.525C1275.43 63.4538 1277.36 63.4344 1288.49 63.402C1289.05 63.4009 1289.59 63.4004 1290.1 63.4004ZM1265.32 63.4655C1265.74 63.4655 1266.17 63.4659 1266.61 63.4668L1272.7 63.4862L1272.85 63.9392C1272.93 64.1851 1273.14 64.8 1273.31 65.2983C1273.49 65.7967 1273.78 66.638 1273.96 67.1752C1274.15 67.7059 1274.62 69.0585 1275.01 70.1716C1275.4 71.2848 1275.7 72.2038 1275.68 72.2168C1275.63 72.2546 1267.22 72.3375 1264.41 72.3375C1263.85 72.3375 1263.52 72.3342 1263.51 72.3268C1263.47 72.3073 1263.35 71.9968 1263.24 71.6408C1263.12 71.2848 1262.93 70.7153 1262.81 70.3787C1262.15 68.5278 1261.66 67.1169 1261.26 65.9843C1261.03 65.2854 1260.74 64.457 1260.62 64.1399C1260.52 63.8163 1260.44 63.538 1260.47 63.5056C1260.49 63.4831 1262.58 63.4655 1265.32 63.4655ZM1314.2 73.8024L1314.14 74.0806C1314.11 74.2359 1314.02 74.4883 1313.95 74.6501C1313.88 74.812 1313.46 76.0158 1313 77.336C1311.67 81.1932 1311.41 81.944 1310.85 83.5491C1310.67 84.0474 1310.49 84.5846 1310.43 84.7463L1310.34 85.0376L1297.13 85.0379L1297.11 79.53L1297.09 74.0159L1299.52 73.9771C1300.87 73.9577 1304.11 73.9124 1306.71 73.8865C1309.33 73.8606 1312.07 73.8283 1312.83 73.8218L1314.2 73.8024ZM1275.88 74.2063C1276.16 74.2063 1276.31 74.228 1276.36 74.2748C1276.46 74.359 1276.76 75.1938 1277.98 78.7275C1278.34 79.7759 1278.71 80.8243 1278.8 81.0574C1278.89 81.2903 1279 81.5945 1279.05 81.7368C1279.09 81.8793 1279.36 82.6688 1279.65 83.4908C1279.94 84.3127 1280.18 85.0053 1280.18 85.0311C1280.18 85.0471 1278.31 85.0587 1275.76 85.0587C1275.21 85.0587 1274.63 85.0581 1274.03 85.057L1267.89 85.0376L1267.65 84.3257C1267.51 83.9308 1267.27 83.2319 1267.1 82.7724C1266.78 81.821 1266.41 80.7467 1266.07 79.7953C1264.5 75.3168 1264.2 74.4495 1264.26 74.3913C1264.29 74.3525 1265.27 74.3202 1266.74 74.3202C1269.33 74.3071 1274.64 74.2424 1275.66 74.2101C1275.74 74.2075 1275.82 74.2063 1275.88 74.2063ZM1294.4 73.9966L1294.42 74.1777C1294.45 74.3202 1294.45 84.8305 1294.42 85.0181C1294.42 85.0505 1291.84 85.0699 1288.69 85.0699L1282.96 85.0703L1282.82 84.7593C1282.75 84.591 1282.02 82.5329 1281.21 80.1837C1280.39 77.8343 1279.6 75.5368 1279.44 75.0709C1279.28 74.6113 1279.17 74.223 1279.19 74.2101C1279.22 74.1777 1281.96 74.1389 1288.63 74.0806C1291.03 74.0547 1293.31 74.0289 1293.69 74.0159L1294.4 73.9966ZM1325.69 73.6884C1326.73 73.6884 1327.31 73.7081 1327.34 73.7442C1327.36 73.7765 1327.35 73.8606 1327.3 73.9189C1327.26 73.9836 1327.21 74.1195 1327.18 74.2295C1327.15 74.333 1327.03 74.702 1326.91 75.0385C1326.41 76.43 1326.06 77.4331 1325.87 77.9832C1325.76 78.3003 1325.52 78.9734 1325.35 79.4718C1325.17 79.9701 1324.88 80.8114 1324.69 81.3486C1324.33 82.3517 1324.24 82.6365 1323.73 84.0797C1323.56 84.5457 1323.4 84.9599 1323.37 84.9988C1323.33 85.0505 1321.74 85.0699 1318.22 85.0699C1313.44 85.0699 1313.14 85.0635 1313.14 84.9534C1313.14 84.8563 1314.56 80.7402 1315.76 77.3037C1315.88 76.9995 1316.18 76.1129 1316.45 75.3362C1316.72 74.553 1316.99 73.8735 1317.04 73.8283C1317.11 73.7636 1317.73 73.7442 1319.73 73.7312C1321.16 73.7182 1323.44 73.7052 1324.81 73.6924C1325.13 73.6897 1325.43 73.6884 1325.69 73.6884ZM1311.12 101.057C1311.68 101.057 1312.23 101.099 1312.67 101.185C1314.85 101.599 1316.57 102.79 1317.35 104.44C1317.55 104.861 1317.58 105.003 1317.58 105.909C1317.58 106.854 1317.57 106.938 1317.33 107.43C1317.12 107.89 1316.99 108.09 1316.62 108.589C1316.41 108.867 1315.69 109.45 1315.13 109.78C1314.48 110.174 1313.6 110.511 1312.8 110.673C1312.4 110.753 1311.76 110.793 1311.12 110.793C1310.47 110.793 1309.82 110.751 1309.43 110.666C1307.9 110.343 1306.45 109.54 1305.62 108.563C1304.29 106.99 1304.27 104.919 1305.58 103.366C1306.5 102.272 1307.89 101.502 1309.52 101.191C1309.97 101.102 1310.55 101.057 1311.12 101.057ZM1276.49 101.054C1277.02 101.054 1277.54 101.099 1278.03 101.191C1279.74 101.515 1281.19 102.324 1282.08 103.45C1284.27 106.207 1282.36 109.76 1278.22 110.647C1277.75 110.749 1277.13 110.799 1276.5 110.799C1275.85 110.799 1275.2 110.746 1274.7 110.64C1271.64 110 1269.54 107.625 1269.99 105.333C1270.31 103.644 1271.57 102.337 1273.62 101.534C1274.42 101.223 1275.46 101.054 1276.49 101.054ZM1255.25 51.2294C1254.83 51.2294 1254.22 51.2367 1253.31 51.2479C1251.79 51.2673 1248.74 51.3061 1246.56 51.3255C1245.87 51.3315 1245.29 51.3377 1244.81 51.3418L1244.81 51.3422L1244.81 54.3493V54.3497C1245.69 54.3397 1247.05 54.3297 1248.53 54.322L1253.02 54.2961L1253.7 56.2377C1254.07 57.3056 1254.56 58.6905 1254.77 59.3118C1254.99 59.9332 1255.28 60.7809 1255.43 61.1887C1255.57 61.5964 1255.77 62.1918 1255.89 62.5154C1256 62.8326 1256.33 63.7645 1256.61 64.5864C1257.16 66.1655 1258.06 68.7349 1259.73 73.5176C1259.86 73.9059 1260.09 74.5661 1260.23 74.9738C1260.37 75.3815 1260.59 75.9964 1260.7 76.3329C1261.31 78.0739 1262.98 82.8436 1263.32 83.8079C1263.53 84.4098 1264.2 86.4226 1264.83 88.2735C1265.44 90.1245 1265.98 91.7425 1266.03 91.8655C1266.08 91.9884 1266.47 93.1663 1266.89 94.4865C1267.32 95.8003 1267.7 96.9846 1267.75 97.1076C1267.79 97.2306 1268.03 97.9425 1268.27 98.6933C1268.51 99.4375 1268.74 100.149 1268.79 100.272C1268.86 100.473 1268.84 100.512 1268.37 100.926C1266.47 102.628 1265.59 105.062 1266.1 107.23C1266.33 108.168 1266.52 108.602 1267.06 109.437C1268.38 111.482 1270.95 113.041 1273.93 113.611C1274.74 113.767 1275.58 113.842 1276.41 113.842C1279.42 113.842 1282.43 112.863 1284.41 111.145C1286.13 109.637 1286.99 107.909 1286.99 105.942C1286.99 104.382 1286.42 102.913 1285.28 101.618C1285.04 101.34 1284.84 101.101 1284.84 101.088C1284.84 101.068 1288.88 101.056 1293.81 101.056C1298.75 101.056 1302.79 101.075 1302.79 101.101C1302.79 101.133 1302.62 101.327 1302.42 101.541C1301.63 102.408 1301.01 103.56 1300.75 104.706C1300.54 105.579 1300.62 106.951 1300.93 107.845C1301.72 110.11 1303.59 111.889 1306.32 112.951C1307.85 113.552 1309.37 113.825 1311.14 113.825C1311.16 113.825 1311.18 113.825 1311.2 113.825C1312.99 113.818 1314.18 113.605 1315.86 112.996C1320.26 111.385 1322.57 107.586 1321.34 104C1320.35 101.12 1317.36 98.9457 1313.4 98.2338C1312.79 98.1237 1311.66 98.1108 1292.5 98.0784C1281.37 98.059 1272.24 98.0331 1272.22 98.0138C1272.19 97.9879 1271.08 94.6678 1270.43 92.642C1270.07 91.5419 1269.24 89.0437 1269.08 88.6101C1269.01 88.4029 1268.97 88.1894 1268.99 88.1376C1269.04 88.0599 1273.06 88.047 1297.75 88.047L1326.47 88.0474L1326.98 86.5715C1327.8 84.2092 1328.17 83.1477 1328.77 81.478C1328.9 81.0832 1329.18 80.2678 1329.4 79.6659C1329.61 79.0575 1329.86 78.3327 1329.97 78.0479C1330.06 77.7632 1330.58 76.307 1331.1 74.812C1331.62 73.317 1332.12 71.8867 1332.21 71.6407C1332.3 71.3884 1332.49 70.8512 1332.63 70.4435C1332.77 70.0357 1333.19 68.8513 1333.55 67.8223C1333.91 66.7868 1334.3 65.6801 1334.41 65.363C1334.52 65.0394 1334.76 64.3728 1334.93 63.8745C1335.11 63.3762 1335.46 62.373 1335.71 61.6481L1336.17 60.3279L1312.99 60.3668C1300.23 60.3926 1282.96 60.4314 1274.6 60.4573C1270.76 60.4677 1267.56 60.4729 1265.1 60.4729C1261.4 60.4729 1259.38 60.4612 1259.36 60.4379C1259.31 60.3797 1258.86 59.1371 1258.24 57.3703C1258.1 56.9625 1257.87 56.2895 1257.72 55.8818C1257.59 55.474 1257.38 54.8721 1257.27 54.555C1257.02 53.8107 1256.2 51.4873 1256.14 51.332C1256.1 51.2557 1256.03 51.2294 1255.25 51.2294Z" fill="black"/>
<path d="M1384.45 114.143L1383.6 114.226C1379.58 114.392 1367.82 114.525 1348.32 114.624C1328.69 114.724 1305.57 114.764 1278.97 114.746C1253.58 114.719 1233.27 114.642 1218.05 114.515C1213.17 114.473 1209.16 114.428 1206 114.38L1202.02 114.305C1199.83 114.253 1198.72 114.199 1198.7 114.143C1199.36 113.971 1208.43 113.828 1225.9 113.713C1243.37 113.599 1265.26 113.54 1291.57 113.535C1317.88 113.54 1339.77 113.599 1357.24 113.713C1374.71 113.828 1383.78 113.971 1384.45 114.143Z" fill="black" fill-opacity="0.996078"/>
<path d="M1240.01 43.0381C1236.05 43.0381 1232.57 44.6113 1230.62 46.9715C1230.39 47.2619 1230.17 47.5641 1229.98 47.8768C1229.5 48.6701 1229.18 49.5307 1229.05 50.4346L1229.05 50.4348C1229.05 50.4347 1229.05 50.4347 1229.05 50.4347C1229.01 50.7213 1228.99 51.0123 1228.99 51.3069C1228.99 51.3586 1228.99 51.4102 1228.99 51.4616L1228.99 51.4618C1228.99 51.4617 1228.99 51.4617 1228.99 51.4618C1229.01 52.2664 1229.18 53.0429 1229.49 53.7756C1229.49 53.7756 1229.49 53.7756 1229.49 53.7757L1229.49 53.7759C1229.62 54.101 1229.79 54.4176 1229.97 54.7242C1230.44 54.6879 1230.86 54.5642 1231.23 54.376C1231.04 54.0754 1230.88 53.7635 1230.75 53.4422L1230.75 53.4424C1230.49 52.808 1230.34 52.1369 1230.33 51.442C1230.33 51.4419 1230.33 51.4419 1230.33 51.4418L1230.33 51.442C1230.33 51.397 1230.33 51.352 1230.33 51.3069C1230.33 51.0165 1230.35 50.7301 1230.39 50.4485C1230.39 50.4477 1230.38 50.4468 1230.38 50.446L1230.38 50.4461C1230.38 50.4468 1230.39 50.4476 1230.39 50.4485C1230.49 49.8177 1230.7 49.2116 1231 48.641L1230.49 48.2555L1231 48.6407C1231.17 48.316 1231.37 48.0027 1231.6 47.7029L1231.11 47.3325V47.3327L1231.6 47.7027C1233.27 45.5148 1236.41 44.0405 1240.01 44.0405C1245.03 44.0405 1249.16 46.9017 1249.65 50.5675L1249.65 50.5677C1249.65 50.5675 1249.65 50.5675 1249.65 50.5675C1249.69 50.8107 1249.7 51.0573 1249.7 51.3069C1249.7 52.5869 1249.26 53.7896 1248.49 54.8341L1248.49 54.8343C1246.83 57.0644 1243.66 58.5733 1240.01 58.5733C1237.58 58.5733 1235.36 57.9004 1233.66 56.7893L1232.72 57.494L1233.66 56.7893C1233.33 56.5742 1233.02 56.3426 1232.73 56.0962L1232.73 56.0964L1231.78 56.8064C1232.07 57.0508 1232.38 57.2823 1232.71 57.4994V57.4996L1232.71 57.4996C1234.65 58.7914 1237.21 59.5756 1240.01 59.5756C1244.43 59.5756 1248.23 57.6326 1249.99 54.8254L1249.99 54.8256C1250.66 53.7578 1251.04 52.5652 1251.04 51.3069C1251.04 51.052 1251.02 50.7999 1250.99 50.5509L1250.99 50.5511C1250.48 46.3385 1245.76 43.0381 1240.01 43.0381Z" fill="black"/>
<path d="M1187.31 40.241L1187.31 65.7921L1186.65 65.3011L1220.72 65.3013L1220.26 65.4451L1237.29 52.6694V53.3638L1220.26 40.5882L1220.72 40.732L1186.65 40.7321C1186.29 40.7321 1186 40.5123 1186 40.2411C1186 39.9699 1186.29 39.7501 1186.65 39.7501L1220.72 39.75C1220.9 39.75 1221.06 39.8017 1221.19 39.8938L1238.22 52.6694C1238.48 52.8611 1238.48 53.172 1238.22 53.3638L1221.19 66.1394C1221.06 66.2315 1220.9 66.2832 1220.72 66.2832L1186.65 66.2831C1186.29 66.2831 1186 66.0633 1186 65.7921L1186 40.241C1186 39.9698 1186.29 39.75 1186.65 39.75C1187.02 39.75 1187.31 39.9698 1187.31 40.241Z" fill="black"/>
<path d="M1219.24 51.3005C1219.29 51.2992 1219.34 51.299 1219.4 51.2998C1219.73 51.3047 1220.02 51.3575 1220.27 51.4583C1220.5 51.5508 1220.7 51.6751 1220.86 51.8313C1221.01 51.9874 1221.12 52.1712 1221.2 52.383C1221.27 52.5864 1221.3 52.8015 1221.3 53.0282L1217.2 52.9682C1217.29 52.4351 1217.52 52.0213 1217.88 51.727C1218.21 51.4571 1218.66 51.3149 1219.24 51.3005ZM1205.66 53.5209C1205.74 53.5188 1205.83 53.5184 1205.91 53.5197C1206.09 53.5223 1206.3 53.5334 1206.55 53.5533C1206.79 53.5731 1207 53.5923 1207.16 53.6108L1207.11 55.5901C1206.9 55.6275 1206.66 55.6564 1206.39 55.6767C1206.3 55.6815 1206.2 55.685 1206.1 55.6874C1205.94 55.6913 1205.79 55.6922 1205.63 55.6899C1205.44 55.6871 1205.23 55.676 1205.02 55.6566C1204.8 55.6373 1204.6 55.5898 1204.42 55.5143C1204.25 55.4389 1204.11 55.3315 1203.99 55.1922C1203.88 55.0528 1203.82 54.8617 1203.83 54.6189C1203.84 54.2384 1204.02 53.9577 1204.39 53.7767C1204.69 53.6196 1205.11 53.5344 1205.66 53.5209ZM1197.93 50.0327C1197.09 50.0537 1196.43 50.2038 1195.95 50.4829C1195.43 50.7991 1195.16 51.2325 1195.14 51.7829C1195.13 52.1958 1195.28 52.5259 1195.59 52.7733C1195.89 53.0208 1196.39 53.2467 1197.07 53.4511L1197.64 53.6172C1197.84 53.6688 1198.03 53.7243 1198.21 53.7836C1198.39 53.8347 1198.54 53.8977 1198.68 53.9726C1198.81 54.0474 1198.91 54.138 1199 54.2445C1199.07 54.3508 1199.1 54.4849 1199.1 54.6468C1199.1 54.7925 1199.04 54.9253 1198.93 55.0452C1198.83 55.1571 1198.69 55.2522 1198.51 55.3307C1198.35 55.4093 1198.15 55.4671 1197.93 55.5043C1197.75 55.5326 1197.57 55.5491 1197.39 55.5537C1197.33 55.5551 1197.27 55.5554 1197.21 55.5546C1196.87 55.5495 1196.52 55.516 1196.16 55.4542C1195.82 55.4005 1195.5 55.3271 1195.21 55.2338C1195.12 55.3944 1195.04 55.5592 1194.96 55.728C1194.89 55.889 1194.84 56.0503 1194.82 56.2118C1195.15 56.3058 1195.51 56.3839 1195.89 56.4463C1196.28 56.5006 1196.73 56.5315 1197.25 56.5391C1197.35 56.5405 1197.45 56.5401 1197.55 56.5376C1197.94 56.5279 1198.31 56.4866 1198.65 56.4137C1199.07 56.3227 1199.44 56.1904 1199.74 56.0168C1200.04 55.851 1200.27 55.6439 1200.44 55.3953C1200.61 55.1548 1200.7 54.8848 1200.7 54.5853C1200.71 54.3182 1200.66 54.0867 1200.56 53.8908C1200.47 53.7032 1200.34 53.5393 1200.17 53.3992C1200.01 53.2673 1199.81 53.1551 1199.58 53.0626C1199.35 52.9702 1199.11 52.8897 1198.86 52.8212L1198.15 52.6286C1197.95 52.5772 1197.77 52.526 1197.6 52.4749C1197.44 52.4239 1197.3 52.3611 1197.17 52.2863C1197.04 52.2197 1196.94 52.1372 1196.87 52.039C1196.79 51.9407 1196.76 51.8228 1196.76 51.6852C1196.77 51.4181 1196.93 51.2342 1197.25 51.1335C1197.51 51.0473 1197.8 51 1198.13 50.9919C1198.19 50.9905 1198.25 50.9902 1198.3 50.9911C1198.68 50.9966 1199.04 51.0342 1199.37 51.1038C1199.69 51.1652 1199.97 51.2301 1200.21 51.2983C1200.3 51.162 1200.38 51.0133 1200.45 50.8524C1200.5 50.6912 1200.55 50.5299 1200.57 50.3683C1200.27 50.2829 1199.92 50.2049 1199.51 50.1341C1199.11 50.0716 1198.7 50.0373 1198.28 50.0311C1198.16 50.0294 1198.05 50.0299 1197.93 50.0327ZM1205.09 50.1393C1204.81 50.1462 1204.53 50.1635 1204.24 50.1911C1203.79 50.2332 1203.39 50.2961 1203.02 50.3798C1203.01 50.7522 1203.1 51.0734 1203.3 51.3436C1203.61 51.2753 1203.94 51.2193 1204.28 51.1756C1204.49 51.1524 1204.71 51.1379 1204.94 51.1321C1205.07 51.129 1205.2 51.1284 1205.33 51.1303C1205.94 51.1393 1206.41 51.2393 1206.73 51.4302C1207.05 51.6211 1207.2 51.9554 1207.19 52.433L1207.18 52.6637C1207.03 52.6453 1206.85 52.6263 1206.62 52.6068C1206.4 52.5956 1206.12 52.5874 1205.78 52.5824C1205.68 52.581 1205.59 52.5815 1205.5 52.5837C1205.13 52.5928 1204.78 52.6304 1204.45 52.6965C1204.02 52.7713 1203.65 52.8954 1203.32 53.0687C1202.99 53.234 1202.73 53.4488 1202.52 53.713C1202.33 53.9694 1202.24 54.2716 1202.23 54.6197C1202.22 54.9759 1202.29 55.2807 1202.45 55.534C1202.6 55.7873 1202.83 55.9971 1203.13 56.1634C1203.41 56.3296 1203.77 56.4522 1204.2 56.5314C1204.62 56.6104 1205.09 56.6538 1205.62 56.6616C1205.79 56.664 1205.96 56.6632 1206.13 56.659C1206.51 56.6494 1206.9 56.6219 1207.28 56.5764C1207.82 56.5196 1208.28 56.4615 1208.66 56.4023L1208.76 52.5046C1208.78 51.6951 1208.52 51.1 1207.96 50.7195C1207.41 50.347 1206.6 50.1528 1205.52 50.137C1205.38 50.135 1205.23 50.1357 1205.09 50.1393ZM1211.79 47.6594C1211.75 47.6605 1211.7 47.662 1211.65 47.6638C1211.51 47.6698 1211.38 47.6801 1211.27 47.6945L1211.08 54.98C1211.07 55.3038 1211.12 55.5759 1211.23 55.7962C1211.35 56.0165 1211.5 56.1929 1211.7 56.3254C1211.91 56.4579 1212.14 56.5545 1212.41 56.6151C1212.68 56.6757 1212.97 56.7083 1213.28 56.7129C1213.37 56.7142 1213.46 56.7136 1213.56 56.7112C1213.66 56.7087 1213.77 56.7041 1213.88 56.6974C1213.88 56.6973 1213.89 56.6973 1213.89 56.6972C1214.1 56.6919 1214.28 56.6704 1214.43 56.6326C1214.44 56.3007 1214.4 55.9924 1214.31 55.7076C1214.23 55.7226 1214.12 55.7331 1213.99 55.7393C1213.93 55.7423 1213.88 55.7444 1213.83 55.7457C1213.77 55.7471 1213.71 55.7475 1213.66 55.7467C1213.52 55.7447 1213.39 55.7306 1213.26 55.7044C1213.14 55.6864 1213.03 55.6403 1212.94 55.5661C1212.85 55.5 1212.79 55.4019 1212.74 55.2716C1212.69 55.1413 1212.66 54.9628 1212.67 54.7361L1212.85 47.7177C1212.73 47.6998 1212.6 47.6857 1212.45 47.6754C1212.31 47.6653 1212.18 47.6593 1212.06 47.6576C1211.98 47.6564 1211.89 47.657 1211.79 47.6594ZM1219.19 50.3426C1218.64 50.3563 1218.15 50.4364 1217.72 50.5828C1217.23 50.7457 1216.82 50.9745 1216.48 51.2693C1216.15 51.5559 1215.9 51.9005 1215.73 52.3028C1215.57 52.6973 1215.48 53.1252 1215.47 53.5866C1215.46 54.0562 1215.53 54.4904 1215.68 54.8895C1215.83 55.2804 1216.08 55.6242 1216.43 55.9208C1216.77 56.2092 1217.2 56.4383 1217.74 56.6081C1218.27 56.7698 1218.92 56.8562 1219.68 56.8672C1219.85 56.8698 1220.02 56.869 1220.19 56.8649C1220.51 56.8569 1220.82 56.8363 1221.1 56.8031C1221.52 56.7526 1221.92 56.6733 1222.27 56.5651C1222.27 56.395 1222.24 56.2205 1222.19 56.0416C1222.14 55.8708 1222.08 55.724 1221.99 55.6014C1221.4 55.7653 1220.78 55.8553 1220.13 55.8713C1220.02 55.8741 1219.91 55.8746 1219.8 55.8729C1218.92 55.8601 1218.26 55.6926 1217.82 55.3702C1217.39 55.0481 1217.17 54.5468 1217.16 53.8666L1217.16 53.8665L1222.81 53.9492C1222.83 53.8603 1222.84 53.7512 1222.85 53.6218C1222.87 53.5006 1222.88 53.3833 1222.88 53.27C1222.89 52.8571 1222.82 52.4715 1222.68 52.1131C1222.54 51.7628 1222.33 51.456 1222.04 51.1927C1221.76 50.9375 1221.4 50.7339 1220.97 50.5818C1220.54 50.4298 1220.04 50.3496 1219.47 50.3412C1219.38 50.3398 1219.28 50.3403 1219.19 50.3426Z" fill="black"/>
<path d="M1232.49 52.5569C1232.49 53.7393 1231.26 54.7351 1229.68 54.7351C1228.11 54.7351 1226.88 53.7393 1226.88 52.5569C1226.88 51.3745 1228.11 50.3787 1229.68 50.3787C1231.26 50.3787 1232.49 51.3745 1232.49 52.5569ZM1231.22 52.5569C1231.22 51.8579 1230.5 51.3285 1229.68 51.3285C1228.86 51.3285 1228.15 51.8579 1228.15 52.5569C1228.15 53.256 1228.86 53.7854 1229.68 53.7854C1230.5 53.7854 1231.22 53.256 1231.22 52.5569Z" fill="black"/>
<path d="M644 58.7463L799.983 30L809.85 60.6268L653.868 89.3731L644 58.7463Z" fill="#1A1A1A"/>
<path d="M651.076 60.983L662.127 58.9464C666.432 58.1531 669.781 58.0509 672.174 58.6399C674.578 59.2153 676.11 60.5245 676.768 62.5675C677.201 63.9112 677.116 65.1422 676.512 66.2604C675.908 67.3786 674.906 68.2114 673.506 68.7587L673.559 68.9226C675.65 68.9538 677.284 69.3471 678.461 70.1024C679.638 70.8577 680.462 71.9674 680.934 73.4313C681.634 75.6054 681.104 77.5203 679.342 79.176C677.591 80.8181 674.852 81.9826 671.125 82.6695L658.796 84.9416L651.076 60.983ZM662.597 68.5991L665.176 68.1239C666.404 67.8976 667.288 67.532 667.829 67.0272C668.385 66.5197 668.542 65.889 668.299 65.1352C667.866 63.7914 666.306 63.3671 663.619 63.8623L661.214 64.3055L662.597 68.5991ZM664.123 73.3351L665.744 78.3661L668.756 77.811C671.428 77.3185 672.49 76.2201 671.941 74.5158C671.684 73.7183 671.126 73.173 670.266 72.8801C669.421 72.5844 668.319 72.5617 666.962 72.812L664.123 73.3351Z" fill="#F9F9F9"/>
<path d="M688.697 79.4309L680.978 55.4723L689.537 53.895L695.572 72.626L707.771 70.3778L709.455 75.6054L688.697 79.4309Z" fill="#F9F9F9"/>
<path d="M733.962 71.089L730.955 66.8863L720.663 68.7831L720.506 73.5688L711.102 75.3019L713.687 49.3402L725.106 47.2357L743.322 69.364L733.962 71.089ZM727.468 61.9042L724.835 58.2228C724.236 57.4073 723.482 56.3485 722.572 55.0462C721.677 53.7412 721.061 52.8016 720.723 52.2274C720.773 52.8085 720.808 53.7741 720.83 55.1242C720.866 56.4717 720.833 59.1456 720.729 63.1461L727.468 61.9042Z" fill="#F9F9F9"/>
<path d="M754.754 47.1362C752.717 47.5116 751.332 48.4381 750.6 49.9157C749.863 51.3824 749.852 53.2246 750.567 55.4424C752.052 60.0528 755.113 61.9307 759.75 61.0762C761.152 60.8179 762.462 60.4202 763.681 59.883C764.901 59.3457 766.108 58.7471 767.304 58.087L769.067 63.5605C766.709 64.9326 763.861 65.9261 760.524 66.5411C755.743 67.4222 751.736 67.0496 748.503 65.4232C745.285 63.7941 743.037 60.9967 741.759 57.0309C740.96 54.5509 740.872 52.2582 741.494 50.1528C742.131 48.0448 743.443 46.2752 745.431 44.8442C747.429 43.3996 749.995 42.3884 753.13 41.8107C756.554 41.1798 760.007 41.1394 763.49 41.6897L762.51 47.2694C761.206 47.0699 759.923 46.9359 758.662 46.8675C757.4 46.7991 756.098 46.8887 754.754 47.1362V47.1362Z" fill="#F9F9F9"/>
<path d="M802.606 58.4386L792.942 60.2195L783.729 52.2129L781.563 53.8273L784.145 61.8408L775.543 63.4261L767.823 39.4675L776.426 37.8822L779.778 48.2883C780.004 47.5638 780.549 46.3813 781.413 44.7406L785.7 36.173L795.06 34.448L788.53 47.0227L802.606 58.4386Z" fill="#F9F9F9"/>
<path d="M653.868 89.3732L809.85 60.6269L819.718 91.2537L663.736 120L653.868 89.3732Z" fill="#F9F9F9"/>
<path d="M675.853 112.99L668.282 114.385L661.349 92.8651L678.164 89.7661L679.668 94.4322L670.423 96.1359L671.746 100.243L680.271 98.6717L681.774 103.338L673.249 104.909L675.853 112.99Z" fill="#1A1A1A"/>
<path d="M694.933 101.178L697.456 109.009L689.769 110.425L682.835 88.9053L692.158 87.1872C699.891 85.7621 704.44 87.1691 705.806 91.4083C706.609 93.9008 705.622 96.1256 702.843 98.0827L714.155 105.931L705.436 107.538L696.88 100.819L694.933 101.178ZM693.525 96.806L694.965 96.5406C697.651 96.0456 698.705 94.9002 698.126 93.1044C697.648 91.6226 696.093 91.1245 693.459 91.6099L691.941 91.8897L693.525 96.806Z" fill="#1A1A1A"/>
<path d="M716.783 105.447L709.849 83.9268L717.576 82.5029L724.509 104.023L716.783 105.447Z" fill="#1A1A1A"/>
<path d="M751.179 87.2255C752.336 90.8171 751.918 93.8259 749.923 96.2519C747.941 98.6755 744.582 100.324 739.846 101.196L730.64 102.893L723.706 81.373L733.554 79.5581C738.122 78.7164 741.929 78.9503 744.976 80.26C748.037 81.5672 750.104 83.889 751.179 87.2255V87.2255ZM743.266 88.9021C742.63 86.9297 741.64 85.5632 740.296 84.8027C738.964 84.0397 737.247 83.8519 735.145 84.2393L732.907 84.6518L736.791 96.7071L738.504 96.3914C740.839 95.961 742.388 95.1351 743.149 93.9137C743.907 92.6825 743.946 91.012 743.266 88.9021V88.9021Z" fill="#1A1A1A"/>
<path d="M777.37 94.2812L774.669 90.5063L765.424 92.21L765.283 96.5086L756.837 98.0652L759.158 74.746L769.415 72.8558L785.777 92.7317L777.37 94.2812ZM771.536 86.0312L769.172 82.7245C768.634 81.9921 767.956 81.041 767.139 79.8712C766.336 78.6991 765.782 77.8551 765.478 77.3393C765.523 77.8613 765.555 78.7287 765.574 79.9414C765.607 81.1517 765.577 83.5534 765.484 87.1467L771.536 86.0312Z" fill="#1A1A1A"/>
<path d="M794.668 76.7471L797.002 67.8652L805.332 66.33L800.196 81.1704L802.904 89.5753L795.158 91.0029L792.507 82.7746L778.863 71.2081L787.232 69.6658L794.668 76.7471Z" fill="#1A1A1A"/>
<path d="M644.696 59.0663L799.559 30.5262L819.022 90.9336L664.159 119.474L644.696 59.0663Z" stroke="black" stroke-width="12.6012" stroke-linejoin="round"/>
<g clip-path="url(#clip0_92_142)">
<path d="M125 108.75C152.614 108.75 175 91.9607 175 71.25C175 50.5393 152.614 33.75 125 33.75C97.3858 33.75 75 50.5393 75 71.25C75 91.9607 97.3858 108.75 125 108.75Z" fill="#273B7A"/>
<path d="M135.623 107.881C156.247 104.496 172.106 91.566 174.555 75.5745L150.274 57.3636L134.071 70.4775L129.91 67.3568L98.367 79.938L135.623 107.881Z" fill="#121149"/>
<path d="M146.352 56.3609H103.647C100.099 56.3609 97.2223 58.5185 97.2223 61.1798V77.1942C97.2223 79.8558 100.099 82.0131 103.647 82.0131H108.333V86.6073C108.333 87.987 110.558 88.6783 111.859 87.7025L119.445 82.0131H146.353C149.901 82.0131 152.778 79.8555 152.778 77.1942V61.1798C152.778 58.5185 149.901 56.3609 146.352 56.3609Z" fill="#FF314F"/>
<path d="M146.352 56.3609H124.888V82.0132H146.352C149.901 82.0132 152.777 79.8557 152.777 77.1943V61.1798C152.778 58.5185 149.901 56.3609 146.352 56.3609Z" fill="#A30F44"/>
<path d="M109.848 74.6594H106.481C105.831 74.6594 105.303 74.2637 105.303 73.7755C105.303 73.2872 105.83 72.8916 106.481 72.8916H109.848C111.055 72.8916 112.037 72.1552 112.037 71.2502C112.037 70.3452 111.055 69.6089 109.848 69.6089C107.342 69.6089 105.303 68.0796 105.303 66.1997C105.303 64.3199 107.342 62.7906 109.848 62.7906H113.215C113.866 62.7906 114.394 63.1862 114.394 63.6745C114.394 64.1627 113.866 64.5584 113.215 64.5584H109.848C108.642 64.5584 107.66 65.2947 107.66 66.1997C107.66 67.1047 108.642 67.8411 109.848 67.8411C112.355 67.8411 114.394 69.3704 114.394 71.2502C114.394 73.1301 112.355 74.6594 109.848 74.6594Z" fill="white"/>
<path d="M123.316 74.6592C122.666 74.6592 122.138 74.2635 122.138 73.7753V66.1995C122.138 65.2946 121.156 64.5582 119.949 64.5582C118.743 64.5582 117.761 65.2946 117.761 66.1995V73.7753C117.761 74.2634 117.233 74.6592 116.582 74.6592C115.932 74.6592 115.404 74.2635 115.404 73.7753V66.1995C115.404 64.3197 117.443 62.7904 119.949 62.7904C122.456 62.7904 124.495 64.3197 124.495 66.1995V73.7753C124.495 74.2634 123.967 74.6592 123.316 74.6592Z" fill="white"/>
<path d="M123.316 69.6087H116.582C115.932 69.6087 115.404 69.213 115.404 68.7248C115.404 68.2365 115.931 67.8409 116.582 67.8409H123.316C123.967 67.8409 124.495 68.2365 124.495 68.7248C124.495 69.213 123.967 69.6087 123.316 69.6087Z" fill="white"/>
<path d="M133.418 74.6592H129.019C127.082 74.6592 125.505 73.4769 125.505 72.0236V63.6743C125.505 63.1862 126.033 62.7904 126.684 62.7904C127.335 62.7904 127.862 63.1861 127.862 63.6743V72.0236C127.862 72.5022 128.381 72.8915 129.02 72.8915H133.418C134.069 72.8915 134.596 73.2872 134.596 73.7754C134.596 74.2637 134.068 74.6592 133.418 74.6592Z" fill="white"/>
<path d="M143.519 74.6592H139.286C137.257 74.6592 135.606 73.4212 135.606 71.8995V65.5497C135.606 64.0282 137.257 62.7901 139.286 62.7901H143.519C144.169 62.7901 144.697 63.1858 144.697 63.674C144.697 64.1622 144.17 64.5579 143.519 64.5579H139.286C138.556 64.5579 137.963 65.0029 137.963 65.5497V71.8995C137.963 72.4465 138.556 72.8914 139.286 72.8914H143.519C144.169 72.8914 144.697 73.287 144.697 73.7753C144.697 74.2635 144.169 74.6592 143.519 74.6592Z" fill="white"/>
<path d="M143.519 69.6087H136.785C136.134 69.6087 135.606 69.213 135.606 68.7248C135.606 68.2365 136.134 67.8409 136.785 67.8409H143.519C144.169 67.8409 144.697 68.2365 144.697 68.7248C144.697 69.213 144.169 69.6087 143.519 69.6087Z" fill="white"/>
</g>
<defs>
<linearGradient id="paint0_linear_92_142" x1="17" y1="150" x2="1418.88" y2="-112.709" gradientUnits="userSpaceOnUse">
<stop stop-color="#00152A"/>
<stop offset="1" stop-color="#DE1F24"/>
</linearGradient>
<clipPath id="clip0_92_142">
<rect width="100" height="75" fill="white" transform="translate(75 33.75)"/>
</clipPath>
</defs>
</svg>
