<svg width="200" height="200" viewBox="0 0 200 200" fill="none" xmlns="http://www.w3.org/2000/svg">
<circle cx="100" cy="100" r="98" fill="#C4C4C4" stroke="black" stroke-width="4"/>
<path d="M98.9393 96.9393C98.3536 97.5251 98.3536 98.4749 98.9393 99.0607L108.485 108.607C109.071 109.192 110.021 109.192 110.607 108.607C111.192 108.021 111.192 107.071 110.607 106.485L102.121 98L110.607 89.5147C111.192 88.9289 111.192 87.9792 110.607 87.3934C110.021 86.8076 109.071 86.8076 108.485 87.3934L98.9393 96.9393ZM198 96.5L100 96.5V99.5L198 99.5V96.5Z" fill="black"/>
<path d="M82.3633 90.7812H87.666C88.7533 90.7812 89.6875 90.944 90.4688 91.2695C91.2565 91.5951 91.862 92.0768 92.2852 92.7148C92.7083 93.3529 92.9199 94.1374 92.9199 95.0684C92.9199 95.8301 92.7897 96.4844 92.5293 97.0312C92.2754 97.5716 91.9141 98.0241 91.4453 98.3887C90.9831 98.7467 90.4395 99.0332 89.8145 99.248L88.8867 99.7363H84.2773L84.2578 97.4512H87.6855C88.1999 97.4512 88.6263 97.36 88.9648 97.1777C89.3034 96.9954 89.5573 96.7415 89.7266 96.416C89.9023 96.0905 89.9902 95.7129 89.9902 95.2832C89.9902 94.8275 89.9056 94.4336 89.7363 94.1016C89.5671 93.7695 89.3099 93.5156 88.9648 93.3398C88.6198 93.1641 88.1868 93.0762 87.666 93.0762H85.293V105H82.3633V90.7812ZM90.3125 105L87.0703 98.6621L90.166 98.6426L93.4473 104.863V105H90.3125Z" fill="black"/>
</svg>
