<svg width="252" height="259" viewBox="0 0 252 259" fill="none" xmlns="http://www.w3.org/2000/svg">
<path d="M29.2175 198.459L124.767 5.46733L222.741 198.991L29.2175 198.459Z" fill="#C4C4C4" stroke="black" stroke-width="4"/>
<path d="M106.951 0.691341C106.781 0.166023 106.217 -0.12164 105.691 0.0488272L97.1308 2.82676C96.6055 2.99722 96.3178 3.56127 96.4883 4.08659C96.6588 4.61191 97.2228 4.89957 97.7481 4.7291L105.358 2.25983L107.827 9.86921C107.997 10.3945 108.561 10.6822 109.087 10.5117C109.612 10.3413 109.9 9.77722 109.729 9.2519L106.951 0.691341ZM3.04883 201.309C3.2193 201.834 3.78334 202.122 4.30866 201.951L12.8692 199.173C13.3945 199.003 13.6822 198.439 13.5117 197.913C13.3413 197.388 12.7772 197.1 12.2519 197.271L4.64252 199.74L2.17325 192.131C2.00278 191.605 1.43873 191.318 0.913418 191.488C0.388096 191.659 0.100433 192.223 0.270904 192.748L3.04883 201.309ZM105.109 0.545674L3.10917 200.546L4.89084 201.454L106.891 1.45433L105.109 0.545674Z" fill="black"/>
<path d="M27.2929 222.293C26.9024 222.683 26.9024 223.317 27.2929 223.707L33.6569 230.071C34.0474 230.462 34.6806 230.462 35.0711 230.071C35.4616 229.681 35.4616 229.047 35.0711 228.657L29.4142 223L35.0711 217.343C35.4616 216.953 35.4616 216.319 35.0711 215.929C34.6806 215.538 34.0474 215.538 33.6569 215.929L27.2929 222.293ZM226.707 223.707C227.098 223.317 227.098 222.683 226.707 222.293L220.343 215.929C219.953 215.538 219.319 215.538 218.929 215.929C218.538 216.319 218.538 216.953 218.929 217.343L224.586 223L218.929 228.657C218.538 229.047 218.538 229.681 218.929 230.071C219.319 230.462 219.953 230.462 220.343 230.071L226.707 223.707ZM28 224H226V222H28V224Z" fill="black"/>
<path d="M247.693 198.952C248.219 199.121 248.782 198.832 248.952 198.307L251.712 189.74C251.881 189.214 251.592 188.651 251.066 188.482C250.541 188.312 249.977 188.601 249.808 189.127L247.355 196.742L239.74 194.289C239.215 194.119 238.651 194.408 238.482 194.934C238.312 195.459 238.601 196.023 239.127 196.192L247.693 198.952ZM147.307 0.0481697C146.781 -0.121172 146.218 0.167694 146.048 0.693369L143.289 9.25984C143.119 9.78551 143.408 10.3489 143.934 10.5183C144.459 10.6876 145.023 10.3988 145.192 9.8731L147.645 2.25846L155.26 4.7115C155.786 4.88084 156.349 4.59198 156.518 4.0663C156.688 3.54061 156.399 2.97718 155.873 2.80784L147.307 0.0481697ZM248.89 197.544L147.89 0.543774L146.11 1.45622L247.11 198.456L248.89 197.544Z" fill="black"/>
<path d="M35.9688 91.2832H38.8887C38.8301 92.2402 38.5664 93.0898 38.0977 93.832C37.6354 94.5742 36.9876 95.1536 36.1543 95.5703C35.3275 95.987 34.3314 96.1953 33.166 96.1953C32.2546 96.1953 31.4375 96.0391 30.7149 95.7266C29.9922 95.4076 29.3737 94.9518 28.8594 94.3594C28.3516 93.7669 27.9642 93.0508 27.6973 92.2109C27.4304 91.3711 27.2969 90.4303 27.2969 89.3887V88.4023C27.2969 87.3607 27.4336 86.4199 27.707 85.5801C27.987 84.7337 28.3841 84.0143 28.8985 83.4219C29.4193 82.8294 30.041 82.3737 30.7637 82.0547C31.4863 81.7357 32.2936 81.5762 33.1856 81.5762C34.3705 81.5762 35.3698 81.791 36.1836 82.2207C37.0039 82.6504 37.6387 83.2428 38.0879 83.998C38.5436 84.7533 38.8171 85.6126 38.9082 86.5762H35.9785C35.946 86.0033 35.832 85.5182 35.6367 85.1211C35.4414 84.7174 35.1452 84.4147 34.7481 84.2129C34.3574 84.0046 33.8366 83.9004 33.1856 83.9004C32.6973 83.9004 32.2708 83.9915 31.9063 84.1738C31.5417 84.3561 31.2357 84.6328 30.9883 85.0039C30.7409 85.375 30.5554 85.8438 30.4317 86.4102C30.3145 86.9701 30.2559 87.6276 30.2559 88.3828V89.3887C30.2559 90.1243 30.3112 90.7721 30.4219 91.332C30.5326 91.8854 30.7018 92.3542 30.9297 92.7383C31.1641 93.1159 31.4636 93.4023 31.8281 93.5977C32.1992 93.7865 32.6452 93.8809 33.166 93.8809C33.778 93.8809 34.2826 93.7832 34.6797 93.5879C35.0768 93.3926 35.3796 93.1029 35.5879 92.7188C35.8027 92.3346 35.9297 91.8561 35.9688 91.2832Z" fill="black"/>
<path d="M126.449 240.76H122.797L122.777 238.748H125.844C126.384 238.748 126.827 238.68 127.172 238.543C127.517 238.4 127.774 238.195 127.943 237.928C128.119 237.654 128.207 237.322 128.207 236.932C128.207 236.489 128.122 236.131 127.953 235.857C127.79 235.584 127.533 235.385 127.182 235.262C126.837 235.138 126.391 235.076 125.844 235.076H123.813V247H120.883V232.781H125.844C126.671 232.781 127.41 232.859 128.061 233.016C128.718 233.172 129.275 233.41 129.73 233.729C130.186 234.048 130.535 234.451 130.775 234.939C131.016 235.421 131.137 235.994 131.137 236.658C131.137 237.244 131.003 237.785 130.736 238.279C130.476 238.774 130.063 239.178 129.496 239.49C128.936 239.803 128.204 239.975 127.299 240.008L126.449 240.76ZM126.322 247H121.996L123.139 244.715H126.322C126.837 244.715 127.257 244.633 127.582 244.471C127.908 244.301 128.148 244.074 128.305 243.787C128.461 243.501 128.539 243.172 128.539 242.801C128.539 242.384 128.467 242.023 128.324 241.717C128.188 241.411 127.966 241.176 127.66 241.014C127.354 240.844 126.951 240.76 126.449 240.76H123.627L123.646 238.748H127.162L127.836 239.539C128.702 239.526 129.398 239.679 129.926 239.998C130.46 240.311 130.847 240.717 131.088 241.219C131.335 241.72 131.459 242.257 131.459 242.83C131.459 243.742 131.26 244.51 130.863 245.135C130.466 245.753 129.883 246.219 129.115 246.531C128.354 246.844 127.423 247 126.322 247Z" fill="black"/>
<path d="M220.332 84.2129L216.465 96H213.35L218.633 81.7812H220.615L220.332 84.2129ZM223.545 96L219.668 84.2129L219.355 81.7812H221.357L226.67 96H223.545ZM223.369 90.707V93.002H215.859V90.707H223.369Z" fill="black"/>
<path d="M145.691 120.572V122.857H138.27V120.572H145.691ZM139.139 114.781V129H136.209V114.781H139.139ZM147.781 114.781V129H144.861V114.781H147.781Z" fill="black"/>
<path d="M124.707 21.2929C124.317 20.9024 123.683 20.9024 123.293 21.2929L116.929 27.6569C116.538 28.0474 116.538 28.6805 116.929 29.0711C117.319 29.4616 117.953 29.4616 118.343 29.0711L124 23.4142L129.657 29.0711C130.047 29.4616 130.681 29.4616 131.071 29.0711C131.462 28.6805 131.462 28.0474 131.071 27.6569L124.707 21.2929ZM123.293 193.707C123.683 194.098 124.317 194.098 124.707 193.707L131.071 187.343C131.462 186.953 131.462 186.319 131.071 185.929C130.681 185.538 130.047 185.538 129.657 185.929L124 191.586L118.343 185.929C117.953 185.538 117.319 185.538 116.929 185.929C116.538 186.319 116.538 186.953 116.929 187.343L123.293 193.707ZM123 22L123 193H125L125 22H123Z" fill="black"/>
</svg>
