<svg width="200" height="200" viewBox="0 0 200 200" fill="none" xmlns="http://www.w3.org/2000/svg">
<circle cx="100" cy="100" r="97.5" fill="#C4C4C4" stroke="black" stroke-width="5"/>
<path d="M100.917 98.9617C100.344 99.5595 100.364 100.509 100.962 101.083L110.704 110.428C111.302 111.001 112.252 110.981 112.825 110.383C113.399 109.786 113.379 108.836 112.781 108.263L104.121 99.9558L112.428 91.2956C113.001 90.6978 112.981 89.7482 112.383 89.1748C111.786 88.6013 110.836 88.6211 110.263 89.219L100.917 98.9617ZM197.969 96.5003L101.969 98.5003L102.031 101.5L198.031 99.4997L197.969 96.5003Z" fill="black"/>
<path d="M145.363 78.7812H150.666C151.753 78.7812 152.688 78.944 153.469 79.2695C154.257 79.5951 154.862 80.0768 155.285 80.7148C155.708 81.3529 155.92 82.1374 155.92 83.0684C155.92 83.8301 155.79 84.4844 155.529 85.0312C155.275 85.5716 154.914 86.0241 154.445 86.3887C153.983 86.7467 153.439 87.0332 152.814 87.248L151.887 87.7363H147.277L147.258 85.4512H150.686C151.2 85.4512 151.626 85.36 151.965 85.1777C152.303 84.9954 152.557 84.7415 152.727 84.416C152.902 84.0905 152.99 83.7129 152.99 83.2832C152.99 82.8275 152.906 82.4336 152.736 82.1016C152.567 81.7695 152.31 81.5156 151.965 81.3398C151.62 81.1641 151.187 81.0762 150.666 81.0762H148.293V93H145.363V78.7812ZM153.312 93L150.07 86.6621L153.166 86.6426L156.447 92.8633V93H153.312Z" fill="black"/>
<path d="M84.1309 51H81.0352L81.0547 48.7148H84.1309C84.8991 48.7148 85.5469 48.5423 86.0742 48.1973C86.6016 47.8457 86.9987 47.3346 87.2656 46.6641C87.5391 45.9935 87.6758 45.1829 87.6758 44.2324V43.5391C87.6758 42.8099 87.5977 42.1686 87.4414 41.6152C87.2917 41.0618 87.0671 40.5964 86.7676 40.2188C86.4681 39.8411 86.1003 39.5579 85.6641 39.3691C85.2279 39.1738 84.7266 39.0762 84.1602 39.0762H80.9766V36.7812H84.1602C85.1107 36.7812 85.9798 36.944 86.7676 37.2695C87.5618 37.5885 88.2487 38.0475 88.8281 38.6465C89.4076 39.2454 89.8535 39.9616 90.166 40.7949C90.485 41.6217 90.6445 42.543 90.6445 43.5586V44.2324C90.6445 45.2415 90.485 46.1628 90.166 46.9961C89.8535 47.8294 89.4076 48.5456 88.8281 49.1445C88.2552 49.737 87.5684 50.196 86.7676 50.5215C85.9733 50.8405 85.0944 51 84.1309 51ZM82.6953 36.7812V51H79.7656V36.7812H82.6953Z" fill="black"/>
<path d="M101.061 2.93934C100.475 2.35355 99.5251 2.35355 98.9393 2.93934L89.3934 12.4853C88.8076 13.0711 88.8076 14.0208 89.3934 14.6066C89.9792 15.1924 90.9289 15.1924 91.5147 14.6066L100 6.12132L108.485 14.6066C109.071 15.1924 110.021 15.1924 110.607 14.6066C111.192 14.0208 111.192 13.0711 110.607 12.4853L101.061 2.93934ZM98.9393 196.061C99.5251 196.646 100.475 196.646 101.061 196.061L110.607 186.515C111.192 185.929 111.192 184.979 110.607 184.393C110.021 183.808 109.071 183.808 108.485 184.393L100 192.879L91.5147 184.393C90.9289 183.808 89.9792 183.808 89.3934 184.393C88.8076 184.979 88.8076 185.929 89.3934 186.515L98.9393 196.061ZM98.5 4L98.5 195H101.5L101.5 4H98.5Z" fill="black"/>
</svg>
